<svg id="Capa_1" data-name="Capa 1" xmlns="http://www.w3.org/2000/svg" viewBox="0 0 223 223"><defs><style>.cls-1{fill:#282a36;}.cls-2{fill:#0a6d87;}.cls-3{fill:#fff;stroke:#fff;stroke-miterlimit:10;stroke-width:8px;}</style></defs><title>logofinal</title><rect class="cls-1" width="223" height="223" rx="12" ry="12"/><path class="cls-2" d="M405,300.07V285.35a2.4,2.4,0,0,1,2.37-2.37H415a2.24,2.24,0,0,1,1.65.7,2.29,2.29,0,0,1,.7,1.67v14.72a2.38,2.38,0,0,1-2.37,2.37h-7.65a2.36,2.36,0,0,1-2.37-2.37Zm10-.09V285.46h-6.5l-1,14.52Z" transform="translate(-395 -271)"/><path class="cls-2" d="M441.21,300.07V285.35a2.4,2.4,0,0,1,2.37-2.37h7.68a2.24,2.24,0,0,1,1.65.7,2.29,2.29,0,0,1,.7,1.67v14.72a2.38,2.38,0,0,1-2.37,2.37h-7.65a2.36,2.36,0,0,1-2.37-2.37Zm10-.09V285.46h-7.5V300Z" transform="translate(-395 -271)"/><path class="cls-2" d="M478.66,300h3.78V285.46h-3.72a1.23,1.23,0,1,1,0-2.46h6.18v17h2.46v-5.13a1.19,1.19,0,0,1,.36-.86,1.17,1.17,0,0,1,.87-.37,1.23,1.23,0,0,1,1.23,1.23v6.36a1.23,1.23,0,0,1-1.23,1.23h-9.93a1.16,1.16,0,0,1-.87-.37,1.24,1.24,0,0,1-.36-.89,1.15,1.15,0,0,1,.36-.85A1.2,1.2,0,0,1,478.66,300Z" transform="translate(-395 -271)"/><path class="cls-2" d="M514.9,300h3.78V285.46H515a1.23,1.23,0,1,1,0-2.46h6.18v17h2.46v-5.13A1.2,1.2,0,0,1,524,294a1.18,1.18,0,0,1,.87-.37,1.22,1.22,0,0,1,1.23,1.23v6.36a1.22,1.22,0,0,1-1.23,1.23H514.9a1.16,1.16,0,0,1-.87-.37,1.24,1.24,0,0,1-.36-.89,1.15,1.15,0,0,1,.36-.85A1.2,1.2,0,0,1,514.9,300Z" transform="translate(-395 -271)"/><path class="cls-2" d="M549.93,300.07V285.35a2.4,2.4,0,0,1,2.37-2.37H560a2.24,2.24,0,0,1,1.65.7,2.29,2.29,0,0,1,.7,1.67v14.72a2.38,2.38,0,0,1-2.37,2.37h-7.65a2.36,2.36,0,0,1-2.37-2.37Zm10-.09V285.46h-7.5V300Z" transform="translate(-395 -271)"/><path class="cls-2" d="M586.17,300.07V285.35a2.4,2.4,0,0,1,2.37-2.37h7.68a2.24,2.24,0,0,1,1.65.7,2.29,2.29,0,0,1,.7,1.67v14.72a2.38,2.38,0,0,1-2.37,2.37h-7.65a2.36,2.36,0,0,1-2.37-2.37Zm10-.09V285.46h-7.5V300Z" transform="translate(-395 -271)"/><path class="cls-2" d="M408.17,336H412V321.46h-3.72a1.23,1.23,0,1,1,0-2.46h6.18v17h2.46v-5.13a1.19,1.19,0,0,1,.36-.86,1.17,1.17,0,0,1,.87-.37,1.23,1.23,0,0,1,1.23,1.23v6.36a1.23,1.23,0,0,1-1.23,1.23h-9.93a1.16,1.16,0,0,1-.87-.37,1.24,1.24,0,0,1-.36-.89,1.15,1.15,0,0,1,.36-.85A1.2,1.2,0,0,1,408.17,336Z" transform="translate(-395 -271)"/><path class="cls-2" d="M443.21,336.07V321.35a2.4,2.4,0,0,1,2.37-2.37h7.68a2.24,2.24,0,0,1,1.65.7,2.29,2.29,0,0,1,.7,1.67v14.72a2.38,2.38,0,0,1-2.37,2.37h-7.65a2.36,2.36,0,0,1-2.37-2.37Zm10-.09V321.46h-7.5V336Z" transform="translate(-395 -271)"/><path class="cls-2" d="M480.66,336h3.78V321.46h-3.72a1.23,1.23,0,1,1,0-2.46h6.18v17h2.46v-5.13a1.19,1.19,0,0,1,.36-.86,1.17,1.17,0,0,1,.87-.37,1.23,1.23,0,0,1,1.23,1.23v6.36a1.23,1.23,0,0,1-1.23,1.23h-9.93a1.16,1.16,0,0,1-.87-.37,1.24,1.24,0,0,1-.36-.89,1.15,1.15,0,0,1,.36-.85A1.2,1.2,0,0,1,480.66,336Z" transform="translate(-395 -271)"/><path class="cls-2" d="M515.69,336.07V321.35a2.4,2.4,0,0,1,2.37-2.37h7.68a2.24,2.24,0,0,1,1.65.7,2.29,2.29,0,0,1,.7,1.67v14.72a2.38,2.38,0,0,1-2.37,2.37h-7.65a2.36,2.36,0,0,1-2.37-2.37Zm10-.09V321.46h-7.5V336Z" transform="translate(-395 -271)"/><path class="cls-2" d="M551.93,336.07V321.35a2.4,2.4,0,0,1,2.37-2.37H562a2.24,2.24,0,0,1,1.65.7,2.29,2.29,0,0,1,.7,1.67v14.72a2.38,2.38,0,0,1-2.37,2.37h-7.65a2.36,2.36,0,0,1-2.37-2.37Zm10-.09V321.46h-7.5V336Z" transform="translate(-395 -271)"/><path class="cls-2" d="M589.38,336h3.78V321.46h-3.72a1.23,1.23,0,1,1,0-2.46h6.18v17h2.46v-5.13a1.2,1.2,0,0,1,.36-.86,1.18,1.18,0,0,1,.87-.37,1.22,1.22,0,0,1,1.23,1.23v6.36a1.22,1.22,0,0,1-1.23,1.23h-9.93a1.17,1.17,0,0,1-.87-.37,1.24,1.24,0,0,1-.36-.89,1.15,1.15,0,0,1,.36-.85A1.2,1.2,0,0,1,589.38,336Z" transform="translate(-395 -271)"/><path class="cls-2" d="M407,372.07V357.35a2.4,2.4,0,0,1,2.37-2.37H417a2.24,2.24,0,0,1,1.65.7,2.29,2.29,0,0,1,.7,1.67v14.72a2.38,2.38,0,0,1-2.37,2.37h-7.65a2.36,2.36,0,0,1-2.37-2.37Zm10-.09V357.46h-7.5V372Z" transform="translate(-395 -271)"/><path class="cls-2" d="M444.42,372h3.78V357.46h-3.72a1.23,1.23,0,1,1,0-2.46h6.18v17h2.46v-5.13a1.19,1.19,0,0,1,.36-.86,1.17,1.17,0,0,1,.87-.37,1.23,1.23,0,0,1,1.23,1.23v6.36a1.23,1.23,0,0,1-1.23,1.23h-9.93a1.16,1.16,0,0,1-.87-.37,1.24,1.24,0,0,1-.36-.89,1.15,1.15,0,0,1,.36-.85A1.2,1.2,0,0,1,444.42,372Z" transform="translate(-395 -271)"/><path class="cls-2" d="M480.66,372h3.78V357.46h-3.72a1.23,1.23,0,1,1,0-2.46h6.18v17h2.46v-5.13a1.19,1.19,0,0,1,.36-.86,1.17,1.17,0,0,1,.87-.37,1.23,1.23,0,0,1,1.23,1.23v6.36a1.23,1.23,0,0,1-1.23,1.23h-9.93a1.16,1.16,0,0,1-.87-.37,1.24,1.24,0,0,1-.36-.89,1.15,1.15,0,0,1,.36-.85A1.2,1.2,0,0,1,480.66,372Z" transform="translate(-395 -271)"/><path class="cls-2" d="M515.69,372.07V357.35a2.4,2.4,0,0,1,2.37-2.37h7.68a2.24,2.24,0,0,1,1.65.7,2.29,2.29,0,0,1,.7,1.67v14.72a2.38,2.38,0,0,1-2.37,2.37h-7.65a2.36,2.36,0,0,1-2.37-2.37Zm10-.09V357.46h-7.5V372Z" transform="translate(-395 -271)"/><path class="cls-2" d="M553.14,372h3.78V357.46h-3.72a1.23,1.23,0,1,1,0-2.46h6.18v17h2.46v-5.13a1.2,1.2,0,0,1,.36-.86,1.18,1.18,0,0,1,.87-.37,1.22,1.22,0,0,1,1.23,1.23v6.36a1.22,1.22,0,0,1-1.23,1.23h-9.93a1.17,1.17,0,0,1-.87-.37,1.24,1.24,0,0,1-.36-.89,1.15,1.15,0,0,1,.36-.85A1.2,1.2,0,0,1,553.14,372Z" transform="translate(-395 -271)"/><path class="cls-2" d="M588.17,372.07V357.35a2.4,2.4,0,0,1,2.37-2.37h7.68a2.24,2.24,0,0,1,1.65.7,2.29,2.29,0,0,1,.7,1.67v14.72a2.38,2.38,0,0,1-2.37,2.37h-7.65a2.36,2.36,0,0,1-2.37-2.37Zm10-.09V357.46h-7.5V372Z" transform="translate(-395 -271)"/><path class="cls-2" d="M407,408.07V393.35a2.4,2.4,0,0,1,2.37-2.37H417a2.24,2.24,0,0,1,1.65.7,2.29,2.29,0,0,1,.7,1.67v14.72a2.37,2.37,0,0,1-2.37,2.37h-7.65a2.36,2.36,0,0,1-2.37-2.37Zm10-.09V393.46h-7.5V408Z" transform="translate(-395 -271)"/><path class="cls-2" d="M444.42,408h3.78V393.46h-3.72a1.23,1.23,0,1,1,0-2.46h6.18v17h2.46v-5.13a1.19,1.19,0,0,1,.36-.86,1.17,1.17,0,0,1,.87-.37,1.22,1.22,0,0,1,1.23,1.23v6.36a1.23,1.23,0,0,1-1.23,1.23h-9.93a1.17,1.17,0,0,1-.87-.37,1.24,1.24,0,0,1-.36-.89,1.15,1.15,0,0,1,.36-.85A1.2,1.2,0,0,1,444.42,408Z" transform="translate(-395 -271)"/><path class="cls-2" d="M479.45,408.07V393.35a2.4,2.4,0,0,1,2.37-2.37h7.68a2.24,2.24,0,0,1,1.65.7,2.29,2.29,0,0,1,.7,1.67v14.72a2.37,2.37,0,0,1-2.37,2.37h-7.65a2.36,2.36,0,0,1-2.37-2.37Zm10-.09V393.46h-7.5V408Z" transform="translate(-395 -271)"/><path class="cls-2" d="M516.9,408h3.78V393.46H517a1.23,1.23,0,1,1,0-2.46h6.18v17h2.46v-5.13A1.2,1.2,0,0,1,526,402a1.18,1.18,0,0,1,.87-.37,1.22,1.22,0,0,1,1.23,1.23v6.36a1.23,1.23,0,0,1-1.23,1.23H516.9a1.17,1.17,0,0,1-.87-.37,1.24,1.24,0,0,1-.36-.89,1.15,1.15,0,0,1,.36-.85A1.2,1.2,0,0,1,516.9,408Z" transform="translate(-395 -271)"/><path class="cls-2" d="M551.93,408.07V393.35a2.4,2.4,0,0,1,2.37-2.37H562a2.24,2.24,0,0,1,1.65.7,2.29,2.29,0,0,1,.7,1.67v14.72a2.38,2.38,0,0,1-2.37,2.37h-7.65a2.36,2.36,0,0,1-2.37-2.37Zm10-.09V393.46h-7.5V408Z" transform="translate(-395 -271)"/><path class="cls-2" d="M589.38,408h3.78V393.46h-3.72a1.23,1.23,0,1,1,0-2.46h6.18v17h2.46v-5.13a1.2,1.2,0,0,1,.36-.86,1.18,1.18,0,0,1,.87-.37,1.22,1.22,0,0,1,1.23,1.23v6.36a1.23,1.23,0,0,1-1.23,1.23h-9.93a1.17,1.17,0,0,1-.87-.37,1.24,1.24,0,0,1-.36-.89,1.15,1.15,0,0,1,.36-.85A1.2,1.2,0,0,1,589.38,408Z" transform="translate(-395 -271)"/><path class="cls-2" d="M408.17,444H412V429.46h-3.72a1.23,1.23,0,1,1,0-2.46h6.18v17h2.46v-5.13a1.19,1.19,0,0,1,.36-.86,1.17,1.17,0,0,1,.87-.37,1.23,1.23,0,0,1,1.23,1.23v6.36a1.23,1.23,0,0,1-1.23,1.23h-9.93a1.17,1.17,0,0,1-.87-.37,1.24,1.24,0,0,1-.36-.89,1.15,1.15,0,0,1,.36-.85A1.2,1.2,0,0,1,408.17,444Z" transform="translate(-395 -271)"/><path class="cls-2" d="M444.42,444h3.78V429.46h-3.72a1.23,1.23,0,1,1,0-2.46h6.18v17h2.46v-5.13a1.19,1.19,0,0,1,.36-.86,1.17,1.17,0,0,1,.87-.37,1.23,1.23,0,0,1,1.23,1.23v6.36a1.23,1.23,0,0,1-1.23,1.23h-9.93a1.17,1.17,0,0,1-.87-.37,1.24,1.24,0,0,1-.36-.89,1.15,1.15,0,0,1,.36-.85A1.2,1.2,0,0,1,444.42,444Z" transform="translate(-395 -271)"/><path class="cls-2" d="M479.45,444.07V429.35a2.4,2.4,0,0,1,2.37-2.37h7.68a2.24,2.24,0,0,1,1.65.7,2.29,2.29,0,0,1,.7,1.67v14.72a2.37,2.37,0,0,1-2.37,2.37h-7.65a2.36,2.36,0,0,1-2.37-2.37Zm10-.09V429.46h-7.5V444Z" transform="translate(-395 -271)"/><path class="cls-2" d="M515.69,444.07V429.35a2.4,2.4,0,0,1,2.37-2.37h7.68a2.24,2.24,0,0,1,1.65.7,2.29,2.29,0,0,1,.7,1.67v14.72a2.38,2.38,0,0,1-2.37,2.37h-7.65a2.36,2.36,0,0,1-2.37-2.37Zm10-.09V429.46h-7.5V444Z" transform="translate(-395 -271)"/><path class="cls-2" d="M553.14,444h3.78V429.46h-3.72a1.23,1.23,0,1,1,0-2.46h6.18v17h2.46v-5.13a1.2,1.2,0,0,1,.36-.86,1.18,1.18,0,0,1,.87-.37,1.23,1.23,0,0,1,1.23,1.23v6.36a1.23,1.23,0,0,1-1.23,1.23h-9.93a1.17,1.17,0,0,1-.87-.37,1.24,1.24,0,0,1-.36-.89,1.15,1.15,0,0,1,.36-.85A1.2,1.2,0,0,1,553.14,444Z" transform="translate(-395 -271)"/><path class="cls-2" d="M588.17,444.07V429.35a2.4,2.4,0,0,1,2.37-2.37h7.68a2.24,2.24,0,0,1,1.65.7,2.29,2.29,0,0,1,.7,1.67v14.72a2.38,2.38,0,0,1-2.37,2.37h-7.65a2.36,2.36,0,0,1-2.37-2.37Zm10-.09V429.46h-7.5V444Z" transform="translate(-395 -271)"/><path class="cls-2" d="M408.17,482.38H412V467.86h-3.72a1.23,1.23,0,1,1,0-2.46h6.18v17h2.46v-5.13a1.19,1.19,0,0,1,.36-.86,1.17,1.17,0,0,1,.87-.37,1.23,1.23,0,0,1,1.23,1.23v6.36a1.23,1.23,0,0,1-1.23,1.23h-9.93a1.17,1.17,0,0,1-.87-.37,1.24,1.24,0,0,1-.36-.89,1.15,1.15,0,0,1,.36-.85A1.2,1.2,0,0,1,408.17,482.38Z" transform="translate(-395 -271)"/><path class="cls-2" d="M443.21,482.47V467.75a2.4,2.4,0,0,1,2.37-2.37h7.68a2.24,2.24,0,0,1,1.65.7,2.29,2.29,0,0,1,.7,1.67v14.72a2.37,2.37,0,0,1-2.37,2.37h-7.65a2.36,2.36,0,0,1-2.37-2.37Zm10-.09V467.86h-7.5v14.52Z" transform="translate(-395 -271)"/><path class="cls-2" d="M480.66,482.38h3.78V467.86h-3.72a1.23,1.23,0,1,1,0-2.46h6.18v17h2.46v-5.13a1.19,1.19,0,0,1,.36-.86,1.17,1.17,0,0,1,.87-.37,1.23,1.23,0,0,1,1.23,1.23v6.36a1.23,1.23,0,0,1-1.23,1.23h-9.93a1.17,1.17,0,0,1-.87-.37,1.24,1.24,0,0,1-.36-.89,1.15,1.15,0,0,1,.36-.85A1.2,1.2,0,0,1,480.66,482.38Z" transform="translate(-395 -271)"/><path class="cls-2" d="M516.9,482.38h3.78V467.86H517a1.23,1.23,0,1,1,0-2.46h6.18v17h2.46v-5.13a1.2,1.2,0,0,1,.36-.86,1.18,1.18,0,0,1,.87-.37,1.23,1.23,0,0,1,1.23,1.23v6.36a1.23,1.23,0,0,1-1.23,1.23H516.9a1.17,1.17,0,0,1-.87-.37,1.24,1.24,0,0,1-.36-.89,1.15,1.15,0,0,1,.36-.85A1.2,1.2,0,0,1,516.9,482.38Z" transform="translate(-395 -271)"/><path class="cls-2" d="M551.93,482.47V467.75a2.4,2.4,0,0,1,2.37-2.37H562a2.24,2.24,0,0,1,1.65.7,2.29,2.29,0,0,1,.7,1.67v14.72a2.38,2.38,0,0,1-2.37,2.37h-7.65a2.36,2.36,0,0,1-2.37-2.37Zm10-.09V467.86h-7.5v14.52Z" transform="translate(-395 -271)"/><path class="cls-2" d="M589.38,482.38h3.78V467.86h-3.72a1.23,1.23,0,1,1,0-2.46h6.18v17h2.46v-5.13a1.2,1.2,0,0,1,.36-.86,1.18,1.18,0,0,1,.87-.37,1.23,1.23,0,0,1,1.23,1.23v6.36a1.23,1.23,0,0,1-1.23,1.23h-9.93a1.17,1.17,0,0,1-.87-.37,1.24,1.24,0,0,1-.36-.89,1.15,1.15,0,0,1,.36-.85A1.2,1.2,0,0,1,589.38,482.38Z" transform="translate(-395 -271)"/><path class="cls-3" d="M415,380.73v-3.62a5,5,0,0,1,2.85-4.45l36.84-21.8a5.39,5.39,0,0,1,3-1,4.46,4.46,0,0,1,3.2,1.39,4.58,4.58,0,0,1,1.42,3.4,4.15,4.15,0,0,1-2.06,3.85L425.8,378.88l34.47,20.27a4.43,4.43,0,0,1,2,4,4.59,4.59,0,0,1-1.42,3.4,4.46,4.46,0,0,1-3.2,1.39,5.77,5.77,0,0,1-3-1l-36.85-21.74A4.86,4.86,0,0,1,415,380.73Z" transform="translate(-395 -271)"/><path class="cls-3" d="M525.84,350.13l-38,64.4A3.08,3.08,0,0,1,485,416a5.41,5.41,0,0,1-3.42-1.25,3.91,3.91,0,0,1-1.58-3.2,7.45,7.45,0,0,1,1.11-3.67l38-64.33a3.21,3.21,0,0,1,2.94-1.52,5.47,5.47,0,0,1,3.35,1.2,3.76,3.76,0,0,1,1.58,3.15A7.35,7.35,0,0,1,525.84,350.13Z" transform="translate(-395 -271)"/><path class="cls-3" d="M592,377.1v3.63a5,5,0,0,1-2.71,4.47l-36.86,21.72a5.85,5.85,0,0,1-3.06,1,4.55,4.55,0,0,1-3.2-1.34,4.46,4.46,0,0,1-1.42-3.4,4.18,4.18,0,0,1,2.11-3.9l34.41-20.39-34.41-20.26a4.85,4.85,0,0,1-.68-7.43,4.55,4.55,0,0,1,3.2-1.34,6.06,6.06,0,0,1,3.06,1l36.86,21.77A5,5,0,0,1,592,377.1Z" transform="translate(-395 -271)"/></svg>